<svg width="128" height="128" viewBox="0 0 128 128" xmlns="http://www.w3.org/2000/svg" fill="none">
  <!-- Background (optional dark theme) -->
  <rect width="128" height="128" rx="16" fill="#0f0f0f"/>

  <!-- Left text lines -->
  <rect x="12" y="24" width="40" height="6" rx="3" fill="#ff2a2a"/>
  <rect x="12" y="36" width="36" height="6" rx="3" fill="#ff2a2a"/>
  <rect x="12" y="48" width="32" height="6" rx="3" fill="#ff2a2a"/>

  <!-- Right text lines -->
  <rect x="76" y="24" width="40" height="6" rx="3" fill="#ff2a2a"/>
  <rect x="80" y="36" width="36" height="6" rx="3" fill="#ff2a2a"/>
  <rect x="84" y="48" width="32" height="6" rx="3" fill="#ff2a2a"/>

  <!-- Bottom text lines -->
  <rect x="20" y="88" width="88" height="6" rx="3" fill="#ff2a2a"/>
  <rect x="20" y="100" width="72" height="6" rx="3" fill="#ff2a2a"/>

  <!-- Wesker-inspired silhouette -->
  <g fill="#ffffff">
    <!-- Head -->
    <ellipse cx="64" cy="60" rx="16" ry="18"/>
    
    <!-- Hair (slick back) -->
    <path d="M48 54 C52 36, 76 36, 80 54 C76 48, 52 48, 48 54 Z" fill="#ffffff"/>
    
    <!-- Sunglasses -->
    <rect x="52" y="58" width="24" height="6" rx="2" fill="#0f0f0f"/>
    
    <!-- Coat collar -->
    <path d="M48 76 L64 66 L80 76 L72 76 L64 70 L56 76 Z" fill="#ffffff"/>
  </g>
</svg>